<?xml version="1.0" encoding="UTF-8"?>
<svg id="Layer_2" data-name="Layer 2" xmlns="http://www.w3.org/2000/svg" viewBox="0 0 685.78 687.19">
  <defs>
    <style>
      .cls-1 {
        fill: #fff;
      }
    </style>
  </defs>
  <g id="Layer_1-2" data-name="Layer 1">
    <g>
      <path class="cls-1" d="m274.01,278.37c0,3.07-.61,6.27-.61,9.46-1.23,55.29,18.19,101.37,62.79,135.17,51.24,38.83,134.43,28.02,163.55-45.96,21.26-53.82,11.92-104.45-22.98-150.03-26.42-34.53-62.79-47.19-105.18-41.41-30.23,4.05-54.56,20.03-75.69,41.29-2.83,2.95-5.28,6.14-8.48,8.72-4.67,3.81-12.66,3.69-16.1,0-4.3-4.3-2.58-9.09-.49-13.64.98-2.09,2.46-3.81,3.93-5.53,55.29-68.93,155.69-78.64,219.34-7.99,37.72,41.9,47.55,92.16,37.97,146.35-15.85,89.58-111.2,143.77-194.39,95.72-13.15-7.62-25.8-16.1-39.69-24.94,3.69,19.29,9.46,34.77,14.5,46.08,5.53,12.04,11.18,24.82,23.47,38.46,3.19,3.56,6.51,6.76,9.58,9.58,6.76,7.5,16.59,14.87,14.75,17.57-2.09,3.19-17.69-2.95-30.47-9.83-29.98-15.97-47.92-37.23-50.87-40.67-11.06-13.39-17.82-24.58-22.36-34.65-3.44-7.74-8.36-17.2-12.29-28.63-.12-.25-.25-.37-.25-.61-2.33-7.13-4.3-14.87-5.41-23.47-.25-1.6-.25-2.46-.61-6.88-.12-.74-.12-1.35-.25-2.09-.12-1.72-.25-3.44-.49-5.04-.12-1.35-.25-2.83-.37-4.18-2.58-34.41,1.97-70.04,12.04-106.53,2.46-8.48,6.88-11.06,14.99-9.71,7.49,1.34,10.2,4.91,10.07,13.39Z"/>
      <path class="cls-1" d="m685.78,654v2.09c-.12,29.86-.98,30.72-30.72,30.84-74.83,0-149.79-.37-224.74.25-41.29.25-76.31-13.52-106.66-41.41-31.95-29.24-57.14-63.28-75.2-102.48-2.95-6.27-5.16-13.03-7.25-19.66-.74-2.46-.12-5.41-.12-9.71,22.86,11.67,43.62,23.1,65.12,32.81,135.78,62.05,275.49-35.76,286.8-176.82,6.76-85.15-15.85-161.58-80.36-220.69-83.8-76.92-194.02-76.92-274.75-20.64-.25.25-.74.49-1.11.74-1.35.98-3.32,2.33-5.77,4.06-.86.61-1.72,1.23-2.7,1.97-13.03,10.08-25.19,21.63-36.13,34.53-1.6,1.84-3.07,3.69-4.55,5.65,0,.12-.12.25-.25.37-.49.61-1.11,1.47-1.97,2.46-3.93,4.92-7.62,10.08-11.06,15.36-1.84,2.95-3.93,5.9-5.16,9.22-.49,1.35-.98,2.83-1.35,4.18-8.23,15.85-16.47,36.62-21.01,61.32-.74,4.18-1.35,8.48-1.84,12.66-.74,1.97-1.35,4.18-1.84,6.64-23.22,132.58-3.69,253.74,94.49,354.01,3.32,3.44,6.88,7.25,8.85,11.55,7.37,15.24-.37,30.23-17.08,33.18-4.67.86-9.71.61-14.62.61H27.9c-3.44,0-7,.12-10.44-.25-12.53-1.23-15.97-4.55-17.08-16.71-.49-4.92-.37-9.83-.37-14.75C.26,446.86.38,238.33.62,29.81c0-2.09-.12-4.18,0-6.27C1.1,1.65,2.45.05,25.06.05,123.12-.07,221.05.05,319.11.05c111.33,0,222.53.12,333.86.25,6.39,0,12.66,0,18.92.25,8.36.37,12.78,4.79,13.15,13.15.25,5.65.37,11.18.37,16.83.12,207.78.24,415.69.37,623.47Z"/>
    </g>
  </g>
</svg>