<?xml version="1.0" encoding="utf-8"?>
<!-- Generator: Adobe Illustrator 26.3.1, SVG Export Plug-In . SVG Version: 6.00 Build 0)  -->
<svg version="1.1" fill="#FFF" id="Layer_1" xmlns="http://www.w3.org/2000/svg" xmlns:xlink="http://www.w3.org/1999/xlink" x="0px" y="0px"
	 viewBox="0 0 1366 768" style="enable-background:new 0 0 1366 768;" xml:space="preserve">
<style type="text/css">
	.st0{fill:#FFF;}
	.st1{font-family:'A0TesfaUnicode';}
	.st2{font-size:51.6418px;}
</style>
<g>
	<g>
		<path fill="#FFFFFF" d="M1210.61,222.43c0,19.54,0,39.07,0,58.61c0,2.28-0.06,4.57,0.04,6.83c0.27,5.78,1.77,8.66,4.56,8.94
			c3,0.31,5.06-2.68,5.28-8.74c0.29-7.78,0.13-15.62,0.26-23.43c0.32-19.48,2.66-38.11,7.89-55.23c8.42-27.55,21.82-43.43,38.12-52
			c9.87-5.19,20.02-7.79,30.29-8.03c13.83-0.33,27.66-0.19,41.5-0.15c5.41,0.02,5.94,0.92,5.98,10.5
			c0.07,15.95,0.08,31.91-0.01,47.86c-0.05,8.43-0.63,9.44-5.39,9.48c-12.57,0.1-25.16-0.43-37.72,0.16
			c-6.96,0.33-14.05,1.18-20.82,3.91c-17.43,7.03-28.75,33.9-28.57,66c0.03,5.86,1.36,8.89,4.18,9.55c2.83,0.66,4.73-1.63,5.63-6.85
			c0.16-0.92,0.19-1.92,0.29-2.88c3.71-37.85,22.95-53.86,40.47-50.92c15.58,2.62,26.26,17.73,33.31,42.13
			c5.61,19.38,8.18,40.44,8.41,62.07c0.41,39.38,0.23,78.79,0.22,118.18c0,8.79-0.81,10.15-5.69,10.22
			c-8.26,0.12-16.53,0.11-24.79-0.03c-4.75-0.08-5.65-1.74-5.8-10.29c-0.4-22.45-0.46-44.93-1.23-67.33
			c-0.49-14.23-1.8-28.4-3.13-42.48c-0.47-4.98-1.73-10.02-3.26-14.3c-4.09-11.48-11.14-11.24-14.55,0.88
			c-2,7.11-3.34,15.18-4.01,23.09c-1.19,14.13-1.91,28.43-2.32,42.71c-0.55,18.85-0.61,37.74-0.91,56.62
			c-0.16,9.92-0.78,11.06-6.38,11.08c-15.09,0.06-30.18,0.49-45.27-0.14c-19.34-0.8-35.73-13.49-47.42-42.49
			c-6.61-16.39-10.49-34.87-10.76-55.31c-0.28-21.15-0.21-42.32-0.22-63.48c-0.03-47.86-0.02-95.72,0-143.58
			c0-14.2,0.05-14.25,7.73-14.27c8.98-0.02,17.96-0.04,26.95,0c6.72,0.02,7.12,0.71,7.13,12.56
			C1210.63,182.06,1210.61,202.25,1210.61,222.43z"/>
		<path class="st0" d="M1068.41,522.02c-26.41-0.01-52.83-0.01-79.24-0.01c-1.44,0-2.88,0.17-4.31-0.09
			c-3.34-0.6-4.47-2.82-4.7-9.85c-0.18-5.67-0.06-11.39-0.06-17.08c0-29.62-0.02-59.24,0.04-88.86c0.01-5.67,0.15-11.4,0.54-17.01
			c1.3-18.54,7.41-30.57,16.26-32.2c5.79-1.06,11.41,0.5,17.03,3.85c11.39,6.79,22.83,13.31,34.32,19.3
			c15.75,8.21,31.72,7.19,47.67,3.33c11.96-2.89,23.82-7.01,35.3-15.05c2.21-1.55,4.45-3.11,6.51-5.35
			c2.45-2.66,3.15-7.59,2.1-12.47c-1.06-4.91-2.97-6.6-5.33-5.2c-3.8,2.25-7.51,5.16-11.32,7.36
			c-28.94,16.73-58.02,20.39-87.25,3.55c-10.75-6.2-21.23-14.12-31.04-25.55c-14.8-17.24-23.41-43.16-24.27-79.29
			c-0.43-18.18-0.68-36.46-0.34-54.63c0.44-23.84,6.47-40.3,16.14-45.77c2.39-1.35,4.96-1.67,7.45-1.68
			c48.69-0.12,97.38-0.14,146.08-0.12c6.11,0,6.42,0.69,6.44,13.55c0.04,29.62,0.03,59.24,0.03,88.86c0,2.28,0.05,4.59-0.11,6.82
			c-0.55,7.74-2.83,10.33-6.11,6.48c-4.08-4.77-8.03-10.06-12.03-15.16c-15.79-20.19-32.46-35.97-50.74-42.75
			c-12.06-4.47-24.24-6.54-36.4-1.17c-5.52,2.44-10.6,7.12-15.04,14.57c-8.6,14.41-11.33,35.44-7.36,57.12
			c3,16.38,8.67,27.68,15.76,36.05c10.38,12.25,21.69,14.97,33.34,14.64c23.94-0.68,46.97-11.66,69.61-27.18
			c8.4-5.76,9.09-4.79,9.11,13.4c0.02,17.85-0.16,35.71,0.09,53.54c0.11,8.07-1.01,14.15-4.18,18.31
			c-6.24,8.17-12.26,17.51-18.89,23.91c-27.63,26.65-56.31,31.47-85.75,15.88c-8.35-4.42-16.66-9.27-24.99-13.88
			c-1.39-0.77-2.79-1.59-4.21-1.86c-4.86-0.93-7.73,6.5-5.57,15.84c1.34,5.81,3.73,11.25,6.27,15.01
			c8.53,12.63,18.33,19.11,28.47,22.87c20.18,7.49,40.06,2.6,59.76-7.72c13.53-7.08,25.91-20.13,38.34-32.93
			c1.93-1.99,3.86-4.19,5.9-5.46c2.52-1.56,4.14,0.92,4.63,6.42c0.2,2.21,0.16,4.54,0.16,6.81c0.02,25.06,0.04,50.13,0.02,75.19
			c-0.01,14.82-0.39,15.64-7.28,15.65C1122.32,522.05,1095.37,522.03,1068.41,522.02z"/>
		<path class="st0" d="M691.36,522.06c-26.41-0.01-52.83-0.01-79.24-0.01c-1.44,0-2.88,0.17-4.31-0.09c-3.34-0.6-4.47-2.82-4.7-9.85
			c-0.18-5.67-0.06-11.39-0.06-17.09c0-29.62-0.02-59.25,0.04-88.87c0.01-5.68,0.15-11.41,0.54-17.01
			c1.3-18.54,7.41-30.57,16.26-32.2c5.79-1.06,11.41,0.5,17.03,3.85c11.39,6.79,22.83,13.31,34.32,19.3
			c15.75,8.21,31.72,7.19,47.67,3.33c11.96-2.89,23.82-7.01,35.3-15.05c2.21-1.55,4.45-3.11,6.51-5.35
			c2.45-2.66,3.15-7.59,2.1-12.47c-1.06-4.91-2.97-6.6-5.33-5.2c-3.8,2.25-7.51,5.16-11.32,7.36
			c-28.94,16.73-58.02,20.39-87.25,3.55c-10.75-6.2-21.23-14.13-31.04-25.55c-14.8-17.25-23.41-43.16-24.27-79.3
			c-0.43-18.18-0.68-36.46-0.34-54.64c0.44-23.85,6.47-40.31,16.14-45.77c2.39-1.35,4.96-1.67,7.45-1.68
			c48.69-0.12,97.38-0.14,146.08-0.12c6.11,0,6.42,0.69,6.44,13.55c0.04,29.62,0.03,59.25,0.03,88.87c0,2.28,0.05,4.59-0.11,6.82
			c-0.55,7.74-2.83,10.33-6.11,6.49c-4.08-4.78-8.03-10.06-12.03-15.17c-15.79-20.19-32.46-35.97-50.74-42.75
			c-12.06-4.48-24.24-6.54-36.4-1.17c-5.52,2.44-10.6,7.12-15.04,14.57c-8.6,14.41-11.33,35.44-7.36,57.13
			c3,16.39,8.67,27.68,15.76,36.05c10.38,12.25,21.69,14.97,33.34,14.64c23.94-0.68,46.97-11.66,69.61-27.18
			c8.4-5.76,9.09-4.79,9.11,13.4c0.02,17.85-0.16,35.71,0.09,53.55c0.11,8.07-1.01,14.16-4.18,18.31
			c-6.24,8.17-12.26,17.51-18.89,23.91c-27.63,26.65-56.31,31.48-85.75,15.88c-8.35-4.43-16.66-9.27-24.99-13.88
			c-1.39-0.77-2.79-1.59-4.21-1.86c-4.86-0.93-7.73,6.5-5.57,15.84c1.34,5.81,3.73,11.25,6.27,15.01
			c8.53,12.64,18.33,19.12,28.47,22.88c20.18,7.49,40.06,2.6,59.76-7.72c13.53-7.08,25.91-20.13,38.34-32.94
			c1.93-1.99,3.86-4.19,5.9-5.46c2.52-1.56,4.14,0.92,4.63,6.42c0.2,2.21,0.16,4.54,0.16,6.81c0.02,25.07,0.04,50.13,0.02,75.2
			c-0.01,14.82-0.39,15.64-7.28,15.65C745.27,522.09,718.31,522.07,691.36,522.06z"/>
		<path class="st0" d="M791.75,334.61c0-54.69,0-109.38,0-164.07c0-3.04-0.03-6.08,0.01-9.11c0.13-10.72,0.61-11.86,5.55-12.01
			c5.57-0.17,11.14-0.07,16.71-0.08c15.63-0.02,31.26-0.05,46.89-0.07c0.9,0,1.8-0.03,2.69,0.01c2.5,0.09,5.26-0.64,6.48,5.57
			c1.2,6.07-0.14,10.88-2.02,15.46c-20.29,49.25-27.68,107.98-27.72,171.71c-0.02,22.48,1.98,44.57,6.03,65.59
			c2.81,14.62,6.78,27.6,12.47,38.01c7.39,13.51,16.08,18.16,25.59,15.75c9.33-2.37,15.78-16.79,17.42-37.91
			c1.22-15.67,0.4-31.08-1.62-46.2c-3.42-25.59-9.08-48.64-17.64-68.35c-1.39-3.19-3.71-5.97-2.74-11.35c0.95-5.3,3.54-4.4,5.6-4.97
			c26.74-7.35,48.79-34.12,67.92-73.05c2.07-4.21,3.97-8.87,6.19-12.66c3.68-6.27,7.5-2.83,8.14,7.09
			c0.22,3.37,0.16,6.82,0.16,10.24c0.01,93.43,0.01,186.85,0.01,280.28c0,0.76,0,1.52,0,2.28c-0.08,14.16-0.61,15.32-7.51,15.31
			c-52.82-0.05-105.63-0.12-158.45-0.2c-1.98,0-3.96,0.21-5.92-0.19c-3.19-0.65-3.97-2.48-4.2-9.33c-0.11-3.4-0.05-6.83-0.05-10.25
			C791.75,446.26,791.75,390.43,791.75,334.61z"/>
		<g>
			<path class="st0" d="M415.17,333.46c1.85,0.39,3.72,0.57,5.59,0.69c21.7,1.41,43.1,7.6,64.32,16.58
				c20.67,8.75,41.02,19.73,60.43,37.04c2.22,1.98,4.46,3.99,6.5,6.61c12.66,11.68,25.32,23.35,37.98,35.03
				c0.19,0.15,1.48,1.14,2.63-0.22c1.2-1.42,1.78-4.8,1.22-8.07c-0.24-29.74-0.43-51.5-0.32-59.51c0.02-1.53,0.1-5.68-1.02-9.9
				c-0.69-2.59-1.76-4.81-3.3-6.89c-13.56-18.28-27.61-34.79-42.32-48.84c-27.85-26.6-56.63-47.07-87.53-52.79
				c-4.08-0.76-8.2-0.73-12.29-1.49c-3.21-0.6-4.86-4.5-4.79-10.31c0.07-5.92,1.76-9.43,4.98-10.01c1.29-0.23,2.61-0.09,3.92,0.06
				c13.81,1.63,27.49,5.13,40.91,12.11c32.68,16.99,62.77,45.77,91.09,82.67c1.25,1.63,2.45,3.61,3.8,4.75
				c3.46,2.91,5.93-0.06,6.35-7.52c0.19-3.38,0.11-6.83,0.11-10.24c0-28.49,0-56.97,0-85.46c0-18.99,0.05-37.98-0.05-56.97
				c-0.05-9.58-0.91-11.12-5.59-11.54c-1.3-0.12-2.61-0.03-3.92-0.03c-27.25,0-54.5,0-81.75,0c0,0.03,0,0.07,0,0.1
				c-27.44,0-54.87,0-82.31,0.01c-1.68,0-3.36-0.01-5.04,0.14c-2.9,0.25-4.44,3.45-4.59,9.31c-0.08,3.03-0.06,6.07-0.06,9.11
				c-0.01,41.02-0.01,82.04-0.02,123.06c0,10.64-0.1,21.28,0.05,31.9C410.31,331.04,411.18,332.63,415.17,333.46z"/>
			<path class="st0" d="M500.94,378.05c-0.43-0.82-1.23-2.11-3.87-3.85c-1.42-0.94-3.41-2.02-5.86-2.69c0,0,0,0,0,0
				c-18.08-5.58-27.13-8.37-27.15-8.37c0,0,0,0,0,0c-0.06-0.02-35.15-8.55-47.32-9.06c-5.57-0.24-6.5,1.71-6.58,13.12
				c-0.08,10.63-0.02,21.27-0.02,31.9c0,36.46-0.03,72.93,0.02,109.39c0.02,12,0.7,13.47,6.34,13.5
				c25.57,0.11,51.14,0.15,76.71,0.08c2.62-0.01,4.08-0.35,4.89-1.99c1.01-2.04,0.99-5.07,1-9.78c0.02-5.47,0.37-10.97,0.1-16.41
				c-1.04-21.21,3.78-91.57,4.15-96.81c0.08-1.2,0.54-6.16-0.33-11.78C502.75,383.56,502.26,380.57,500.94,378.05z"/>
		</g>
	</g>
	<g>
		<path class="st0" d="M170.13,300.24c0,1.67-0.33,3.4-0.33,5.13c-0.67,30.01,9.87,55.01,34.08,73.35
			c27.81,21.07,72.95,15.2,88.76-24.94c11.54-29.21,6.47-56.68-12.47-81.42c-14.34-18.74-34.08-25.61-57.08-22.47
			c-16.4,2.2-29.61,10.87-41.08,22.41c-1.53,1.6-2.87,3.33-4.6,4.73c-2.53,2.07-6.87,2-8.74,0c-2.33-2.33-1.4-4.93-0.27-7.4
			c0.53-1.13,1.33-2.07,2.13-3c30.01-37.41,84.49-42.68,119.03-4.33c20.47,22.74,25.81,50.01,20.61,79.42
			c-8.6,48.61-60.35,78.02-105.49,51.95c-7.14-4.13-14-8.74-21.54-13.54c2,10.47,5.13,18.87,7.87,25.01
			c3,6.53,6.07,13.47,12.74,20.87c1.73,1.93,3.53,3.67,5.2,5.2c3.67,4.07,9,8.07,8,9.54c-1.13,1.73-9.6-1.6-16.54-5.34
			c-16.27-8.67-26.01-20.2-27.61-22.07c-6-7.27-9.67-13.34-12.14-18.8c-1.87-4.2-4.53-9.34-6.67-15.54
			c-0.07-0.13-0.13-0.2-0.13-0.33c-1.27-3.87-2.33-8.07-2.93-12.74c-0.13-0.87-0.13-1.33-0.33-3.73c-0.07-0.4-0.07-0.73-0.13-1.13
			c-0.07-0.93-0.13-1.87-0.27-2.73c-0.07-0.73-0.13-1.53-0.2-2.27c-1.4-18.67,1.07-38.01,6.54-57.81c1.33-4.6,3.73-6,8.14-5.27
			C168.73,293.71,170.19,295.64,170.13,300.24z"/>
		<path class="st0" d="M393.58,504.1v1.13c-0.07,16.2-0.53,16.67-16.67,16.74c-40.61,0-81.29-0.2-121.96,0.13
			c-22.41,0.13-41.41-7.34-57.88-22.47c-17.34-15.87-31.01-34.34-40.81-55.61c-1.6-3.4-2.8-7.07-3.93-10.67
			c-0.4-1.33-0.07-2.93-0.07-5.27c12.4,6.34,23.67,12.54,35.34,17.8c73.69,33.68,149.5-19.4,155.64-95.96
			c3.67-46.21-8.6-87.69-43.61-119.76c-45.48-41.74-105.29-41.74-149.1-11.2c-0.13,0.13-0.4,0.27-0.6,0.4
			c-0.73,0.53-1.8,1.27-3.13,2.2c-0.47,0.33-0.93,0.67-1.47,1.07c-7.07,5.47-13.67,11.74-19.6,18.74c-0.87,1-1.67,2-2.47,3.07
			c0,0.07-0.07,0.13-0.13,0.2c-0.27,0.33-0.6,0.8-1.07,1.33c-2.13,2.67-4.13,5.47-6,8.34c-1,1.6-2.13,3.2-2.8,5
			c-0.27,0.73-0.53,1.53-0.73,2.27c-4.47,8.6-8.94,19.87-11.4,33.28c-0.4,2.27-0.73,4.6-1,6.87c-0.4,1.07-0.73,2.27-1,3.6
			c-12.6,71.95-2,137.7,51.28,192.12c1.8,1.87,3.73,3.93,4.8,6.27c4,8.27-0.2,16.4-9.27,18c-2.53,0.47-5.27,0.33-7.94,0.33H36.56
			c-1.87,0-3.8,0.07-5.67-0.13c-6.8-0.67-8.67-2.47-9.27-9.07c-0.27-2.67-0.2-5.34-0.2-8c0.13-113.16,0.2-226.32,0.33-339.49
			c0-1.13-0.07-2.27,0-3.4c0.27-11.87,1-12.74,13.27-12.74c53.21-0.07,106.36,0,159.57,0c60.42,0,120.76,0.07,181.18,0.13
			c3.47,0,6.87,0,10.27,0.13c4.53,0.2,6.93,2.6,7.14,7.14c0.13,3.07,0.2,6.07,0.2,9.14C393.45,278.51,393.52,391.33,393.58,504.1z"
			/>
	</g>
	<text transform="matrix(1 0 0 1 1168.7883 522.0591)" class="st0 st1 st2">SOUNDS</text>
</g>
</svg>
